<?xml version="1.0" encoding="UTF-8"?>
<svg width="1200" height="1200" viewBox="0 0 1200 1200" fill="none" xmlns="http://www.w3.org/2000/svg">


<g transform="translate(390 90) scale(0.42)">

<rect width="1024" height="1024" rx="210" fill="#FFFFFF" stroke="#101828" stroke-width="42"/>
<path d="M240 520C240 345 355 226 512 226C669 226 784 345 784 520"
      stroke="#2DD4BF" stroke-width="72" stroke-linecap="round"/>
<rect x="168" y="482" width="126" height="204" rx="63" fill="#2DD4BF"/>
<rect x="730" y="482" width="126" height="204" rx="63" fill="#2DD4BF"/>
<path d="M792 675C742 800 630 862 492 862"
      stroke="#2DD4BF" stroke-width="54" stroke-linecap="round"/>
<circle cx="468" cy="862" r="42" fill="#FF7A30"/>
<path d="M346 672C346 672 448 402 494 310C503 292 529 292 538 310C585 402 688 672 688 672"
      stroke="#101828" stroke-width="68" stroke-linecap="round" stroke-linejoin="round"/>
<path d="M416 564C464 538 570 538 620 564"
      stroke="#101828" stroke-width="50" stroke-linecap="round"/>

</g>
<g transform="translate(295 600)">
  <text x="0" y="125" font-family="Inter, Avenir Next, Arial, sans-serif" font-size="148" font-weight="790" letter-spacing="-7" fill="#101828">Aitha</text>
  <text x="5" y="184" font-family="Inter, Arial, sans-serif" font-size="31" font-weight="650" letter-spacing="1.1" fill="#475467">The Modern Front Desk</text>
  <path d="M5 232H430" stroke="#2DD4BF" stroke-width="9" stroke-linecap="round"/>
  <path d="M5 264H280" stroke="#FF7A30" stroke-width="9" stroke-linecap="round"/>
</g>

</svg>