<?xml version="1.0" encoding="UTF-8"?>
<svg width="1024" height="1024" viewBox="0 0 1024 1024" fill="none" xmlns="http://www.w3.org/2000/svg">

<rect width="1024" height="1024" rx="210" fill="#FF7A30"/>
<path d="M240 520C240 345 355 226 512 226C669 226 784 345 784 520"
      stroke="#101828" stroke-width="72" stroke-linecap="round"/>
<rect x="168" y="482" width="126" height="204" rx="63" fill="#101828"/>
<rect x="730" y="482" width="126" height="204" rx="63" fill="#101828"/>
<path d="M792 675C742 800 630 862 492 862"
      stroke="#101828" stroke-width="54" stroke-linecap="round"/>
<circle cx="468" cy="862" r="42" fill="#FFFFFF"/>
<path d="M346 672C346 672 448 402 494 310C503 292 529 292 538 310C585 402 688 672 688 672"
      stroke="#FFFFFF" stroke-width="68" stroke-linecap="round" stroke-linejoin="round"/>
<path d="M416 564C464 538 570 538 620 564"
      stroke="#FFFFFF" stroke-width="50" stroke-linecap="round"/>

</svg>